<?xml version="1.0" encoding="us-ascii" standalone="no"?><svg xmlns="http://www.w3.org/2000/svg" xmlns:xlink="http://www.w3.org/1999/xlink" contentStyleType="text/css" height="882px" preserveAspectRatio="none" style="width:699px;height:882px;background:#FFFFFF;" version="1.1" viewBox="0 0 699 882" width="699px" zoomAndPan="magnify"><defs/><g><text fill="#000000" font-family="Verdana" font-size="22" font-weight="bold" lengthAdjust="spacing" textLength="333" x="178.75" y="37.1182">EVSE J1772 State Machine</text><g id="STATE_A"><rect fill="#FFFFFF" height="71.0439" rx="12.5" ry="12.5" style="stroke:#000000;stroke-width:1.0;" width="113" x="69.5" y="139.7373"/><line style="stroke:#000000;stroke-width:1.0;" x1="69.5" x2="182.5" y1="200.7813" y2="200.7813"/><text fill="#000000" font-family="Verdana" font-size="14" lengthAdjust="spacing" textLength="66" x="93" y="158.8125">STATE_A</text><text fill="#000000" font-family="Verdana" font-size="14" lengthAdjust="spacing" textLength="59" x="96.5" y="175.8271">Standby</text><text fill="#000000" font-family="Verdana" font-size="14" lengthAdjust="spacing" textLength="93" x="79.5" y="192.8418">(PWM 100%)</text></g><g id="STATE_A2"><rect fill="#ADD8E6" height="71.0439" rx="12.5" ry="12.5" style="stroke:#000000;stroke-width:1.0;" width="118" x="286" y="139.7373"/><line style="stroke:#000000;stroke-width:1.0;" x1="286" x2="404" y1="200.7813" y2="200.7813"/><text fill="#000000" font-family="Verdana" font-size="14" lengthAdjust="spacing" textLength="75" x="307.5" y="158.8125">STATE_A2</text><text fill="#000000" font-family="Verdana" font-size="14" lengthAdjust="spacing" textLength="98" x="296" y="175.8271">Standby PWM</text><text fill="#000000" font-family="Verdana" font-size="14" lengthAdjust="spacing" textLength="67" x="311.5" y="192.8418">(Variable)</text></g><g id="STATE_B"><rect fill="#FFFFFF" height="71.0439" rx="12.5" ry="12.5" style="stroke:#000000;stroke-width:1.0;" width="136" x="12" y="287.7373"/><line style="stroke:#000000;stroke-width:1.0;" x1="12" x2="148" y1="348.7813" y2="348.7813"/><text fill="#000000" font-family="Verdana" font-size="14" lengthAdjust="spacing" textLength="66" x="47" y="306.8125">STATE_B</text><text fill="#000000" font-family="Verdana" font-size="14" lengthAdjust="spacing" textLength="116" x="22" y="323.8271">Vehicle Detected</text><text fill="#000000" font-family="Verdana" font-size="14" lengthAdjust="spacing" textLength="93" x="33.5" y="340.8418">(PWM 100%)</text></g><g id="STATE_B2"><rect fill="#ADD8E6" height="71.0439" rx="12.5" ry="12.5" style="stroke:#000000;stroke-width:1.0;" width="175" x="319.5" y="287.7373"/><line style="stroke:#000000;stroke-width:1.0;" x1="319.5" x2="494.5" y1="348.7813" y2="348.7813"/><text fill="#000000" font-family="Verdana" font-size="14" lengthAdjust="spacing" textLength="75" x="369.5" y="306.8125">STATE_B2</text><text fill="#000000" font-family="Verdana" font-size="14" lengthAdjust="spacing" textLength="155" x="329.5" y="323.8271">Vehicle Detected PWM</text><text fill="#000000" font-family="Verdana" font-size="14" lengthAdjust="spacing" textLength="67" x="373.5" y="340.8418">(Variable)</text></g><g id="STATE_C"><rect fill="#FFFFFF" height="71.0439" rx="12.5" ry="12.5" style="stroke:#000000;stroke-width:1.0;" width="113" x="75.5" y="451.7373"/><line style="stroke:#000000;stroke-width:1.0;" x1="75.5" x2="188.5" y1="512.7813" y2="512.7813"/><text fill="#000000" font-family="Verdana" font-size="14" lengthAdjust="spacing" textLength="66" x="99" y="470.8125">STATE_C</text><text fill="#000000" font-family="Verdana" font-size="14" lengthAdjust="spacing" textLength="43" x="110.5" y="487.8271">Ready</text><text fill="#000000" font-family="Verdana" font-size="14" lengthAdjust="spacing" textLength="93" x="85.5" y="504.8418">(PWM 100%)</text></g><g id="STATE_C2"><rect fill="#90EE90" height="71.0439" rx="12.5" ry="12.5" style="stroke:#000000;stroke-width:1.0;" width="126" x="429" y="451.7373"/><line style="stroke:#000000;stroke-width:1.0;" x1="429" x2="555" y1="512.7813" y2="512.7813"/><text fill="#000000" font-family="Verdana" font-size="14" lengthAdjust="spacing" textLength="75" x="454.5" y="470.8125">STATE_C2</text><text fill="#000000" font-family="Verdana" font-size="14" lengthAdjust="spacing" textLength="63" x="460.5" y="487.8271">Charging</text><text fill="#000000" font-family="Verdana" font-size="14" lengthAdjust="spacing" textLength="106" x="439" y="504.8418">(PWM Variable)</text></g><g id="STATE_D"><rect fill="#FFFFFF" height="71.0439" rx="12.5" ry="12.5" style="stroke:#000000;stroke-width:1.0;" width="113" x="28.5" y="599.7373"/><line style="stroke:#000000;stroke-width:1.0;" x1="28.5" x2="141.5" y1="660.7813" y2="660.7813"/><text fill="#000000" font-family="Verdana" font-size="14" lengthAdjust="spacing" textLength="67" x="51.5" y="618.8125">STATE_D</text><text fill="#000000" font-family="Verdana" font-size="14" lengthAdjust="spacing" textLength="74" x="48" y="635.8271">Ventilation</text><text fill="#000000" font-family="Verdana" font-size="14" lengthAdjust="spacing" textLength="93" x="38.5" y="652.8418">(PWM 100%)</text></g><g id="STATE_D2"><rect fill="#90EE90" height="71.0439" rx="12.5" ry="12.5" style="stroke:#000000;stroke-width:1.0;" width="162" x="314" y="599.7373"/><line style="stroke:#000000;stroke-width:1.0;" x1="314" x2="476" y1="660.7813" y2="660.7813"/><text fill="#000000" font-family="Verdana" font-size="14" lengthAdjust="spacing" textLength="76" x="357" y="618.8125">STATE_D2</text><text fill="#000000" font-family="Verdana" font-size="14" lengthAdjust="spacing" textLength="142" x="324" y="635.8271">Ventilation Charging</text><text fill="#000000" font-family="Verdana" font-size="14" lengthAdjust="spacing" textLength="106" x="342" y="652.8418">(PWM Variable)</text></g><g id="STATE_EF"><rect fill="#FFC0CB" height="54.0293" rx="12.5" ry="12.5" style="stroke:#000000;stroke-width:1.0;" width="107" x="585.5" y="608.2373"/><line style="stroke:#000000;stroke-width:1.0;" x1="585.5" x2="692.5" y1="652.2666" y2="652.2666"/><text fill="#000000" font-family="Verdana" font-size="14" lengthAdjust="spacing" textLength="79" x="599.5" y="627.3125">STATE_E/F</text><text fill="#000000" font-family="Verdana" font-size="14" lengthAdjust="spacing" textLength="87" x="595.5" y="644.3271">Error States</text></g><ellipse cx="126" cy="68.7373" fill="#FFFFFF" rx="10" ry="10" style="stroke:#000000;stroke-width:1.0;"/><!--link *start* to STATE_A--><g id="link_*start*_STATE_A"><path d="M126,79.0173 C126,92.4973 126,112.2473 126,133.5673 " fill="none" id="*start*-to-STATE_A" style="stroke:#000000;stroke-width:1.0;"/><polygon fill="#000000" points="126,139.5673,130,130.5673,126,134.5673,122,130.5673,126,139.5673" style="stroke:#000000;stroke-width:1.0;"/></g><!--link STATE_A to STATE_A2--><g id="link_STATE_A_STATE_A2"><path d="M182.68,175.2373 C214.37,175.2373 247.81,175.2373 279.88,175.2373 " fill="none" id="STATE_A-to-STATE_A2" style="stroke:#000000;stroke-width:1.0;"/><polygon fill="#000000" points="285.88,175.2373,276.88,171.2373,280.88,175.2373,276.88,179.2373,285.88,175.2373" style="stroke:#000000;stroke-width:1.0;"/><text fill="#000000" font-family="Verdana" font-size="13" lengthAdjust="spacing" textLength="32" x="218.25" y="153.3071">PWM</text><text fill="#000000" font-family="Verdana" font-size="13" lengthAdjust="spacing" textLength="67" x="200.75" y="169.1064">Activation</text></g><!--reverse link STATE_A to STATE_A2--><g id="link_STATE_A_STATE_A2"><path d="M188.2368,207.9372 C194.0668,210.1272 194.39,209.8973 200.25,211.2373 C229.71,218.0073 238.75,217.8173 268.25,211.2373 C274.14,209.9273 280.11,208.1173 285.99,205.9873 " fill="none" id="STATE_A-backto-STATE_A2" style="stroke:#000000;stroke-width:1.0;"/><polygon fill="#000000" points="182.62,205.8273,189.6386,212.7367,187.3007,207.5856,192.4518,205.2476,182.62,205.8273" style="stroke:#000000;stroke-width:1.0;"/><text fill="#000000" font-family="Verdana" font-size="13" lengthAdjust="spacing" textLength="66" x="201.25" y="192.3071">cp==A &amp;&amp;</text><text fill="#000000" font-family="Verdana" font-size="13" lengthAdjust="spacing" textLength="64" x="202.25" y="208.1064">pwm&lt;MIN</text></g><!--link STATE_B to STATE_B2--><g id="link_STATE_B_STATE_B2"><path d="M148.15,323.2373 C197.85,323.2373 259.61,323.2373 313.33,323.2373 " fill="none" id="STATE_B-to-STATE_B2" style="stroke:#000000;stroke-width:1.0;"/><polygon fill="#000000" points="319.33,323.2373,310.33,319.2373,314.33,323.2373,310.33,327.2373,319.33,323.2373" style="stroke:#000000;stroke-width:1.0;"/><text fill="#000000" font-family="Verdana" font-size="13" lengthAdjust="spacing" textLength="135" x="166.25" y="301.3071">ready_to_charge &amp;&amp;</text><text fill="#000000" font-family="Verdana" font-size="13" lengthAdjust="spacing" textLength="85" x="191.25" y="317.1064">pwm==100%</text></g><!--reverse link STATE_B to STATE_B2--><g id="link_STATE_B_STATE_B2"><path d="M154.1074,340.5174 C162.8274,342.0674 165.77,342.3473 174.25,343.2373 C226.85,348.7573 240.56,347.8373 293.25,343.2373 C301.74,342.4973 310.55,341.4573 319.33,340.2273 " fill="none" id="STATE_B-backto-STATE_B2" style="stroke:#000000;stroke-width:1.0;"/><polygon fill="#000000" points="148.2,339.4673,156.3611,344.9807,153.1228,340.3423,157.7611,337.1041,148.2,339.4673" style="stroke:#000000;stroke-width:1.0;"/><text fill="#000000" font-family="Verdana" font-size="13" lengthAdjust="spacing" textLength="117" x="175.25" y="340.3071">!ready_to_charge</text></g><!--link STATE_D to STATE_D2--><g id="link_STATE_D_STATE_D2"><path d="M141.62,665.8273 C147.45,668.0173 153.39,669.8973 159.25,671.2373 C188.92,678.0573 266.27,676.5373 296.25,671.2373 C302.09,670.2073 302.2398,670.3929 308.1698,668.8229 " fill="none" id="STATE_D-to-STATE_D2" style="stroke:#000000;stroke-width:1.0;"/><polygon fill="#000000" points="313.97,667.2873,304.246,665.724,309.1365,668.567,306.2935,673.4575,313.97,667.2873" style="stroke:#000000;stroke-width:1.0;"/><text fill="#000000" font-family="Verdana" font-size="13" lengthAdjust="spacing" textLength="135" x="160.25" y="652.3071">ready_to_charge &amp;&amp;</text><text fill="#000000" font-family="Verdana" font-size="13" lengthAdjust="spacing" textLength="90" x="182.75" y="668.1064">!over_current</text></g><!--reverse link STATE_D to STATE_D2--><g id="link_STATE_D_STATE_D2"><path d="M147.86,635.2373 C196.1,635.2373 259.89,635.2373 313.98,635.2373 " fill="none" id="STATE_D-backto-STATE_D2" style="stroke:#000000;stroke-width:1.0;"/><polygon fill="#000000" points="141.86,635.2373,150.86,639.2373,146.86,635.2373,150.86,631.2373,141.86,635.2373" style="stroke:#000000;stroke-width:1.0;"/><text fill="#000000" font-family="Verdana" font-size="13" lengthAdjust="spacing" textLength="136" x="159.75" y="613.3071">!ready_to_charge ||</text><text fill="#000000" font-family="Verdana" font-size="13" lengthAdjust="spacing" textLength="85" x="185.25" y="629.1064">over_current</text></g><!--reverse link STATE_C to STATE_C2--><g id="link_STATE_C_STATE_C2"><path d="M148.073,446.3259 C157.093,427.8559 168.33,412.3673 188,401.7373 C214.98,387.1573 296.2,394.5173 326,401.7373 C366.17,411.4773 407.5,432.7273 438.88,451.5973 " fill="none" id="STATE_C-backto-STATE_C2" style="stroke:#000000;stroke-width:1.0;"/><polygon fill="#000000" points="145.44,451.7173,152.9837,445.3855,147.6341,447.2244,145.7951,441.8749,145.44,451.7173" style="stroke:#000000;stroke-width:1.0;"/><text fill="#000000" font-family="Verdana" font-size="13" lengthAdjust="spacing" textLength="136" x="189" y="402.8071">!ready_to_charge ||</text><text fill="#000000" font-family="Verdana" font-size="13" lengthAdjust="spacing" textLength="85" x="214.5" y="418.6064">over_current</text></g><!--link STATE_A to STATE_B--><g id="link_STATE_A_STATE_B"><path d="M70.3,210.8173 C60.87,219.3673 52.39,229.3873 47,240.7373 C39.87,255.7773 41.901,267.5186 49.911,282.0986 " fill="none" id="STATE_A-to-STATE_B" style="stroke:#000000;stroke-width:1.0;"/><polygon fill="#000000" points="52.8,287.3573,51.9722,277.5433,50.3925,282.9751,44.9607,281.3953,52.8,287.3573" style="stroke:#000000;stroke-width:1.0;"/><text fill="#000000" font-family="Verdana" font-size="13" lengthAdjust="spacing" textLength="42" x="48" y="254.8071">cp==B</text></g><!--reverse link STATE_A to STATE_B--><g id="link_STATE_A_STATE_B"><path d="M113.2962,216.5597 C105.9862,239.7497 98.21,264.4473 90.9,287.6373 " fill="none" id="STATE_A-backto-STATE_B" style="stroke:#000000;stroke-width:1.0;"/><polygon fill="#000000" points="115.1,210.8373,108.5793,218.2184,113.5968,215.606,116.2092,220.6235,115.1,210.8373" style="stroke:#000000;stroke-width:1.0;"/><text fill="#000000" font-family="Verdana" font-size="13" lengthAdjust="spacing" textLength="43" x="106" y="254.8071">cp==A</text></g><!--link STATE_B to STATE_C--><g id="link_STATE_B_STATE_C"><path d="M41.98,359.0473 C26.35,377.6773 14.34,400.9973 26,421.7373 C36.87,441.0873 50.8394,452.5149 70.0094,462.5949 " fill="none" id="STATE_B-to-STATE_C" style="stroke:#000000;stroke-width:1.0;"/><polygon fill="#000000" points="75.32,465.3873,69.2157,457.6583,70.8945,463.0603,65.4925,464.7391,75.32,465.3873" style="stroke:#000000;stroke-width:1.0;"/><text fill="#000000" font-family="Verdana" font-size="13" lengthAdjust="spacing" textLength="65" x="27" y="402.8071">[From B2]</text><text fill="#000000" font-family="Verdana" font-size="13" lengthAdjust="spacing" textLength="41" x="39" y="418.6064">via C2</text></g><!--reverse link STATE_B to STATE_C--><g id="link_STATE_B_STATE_C"><path d="M92.9933,364.7104 C101.7633,392.0404 112.09,424.2273 120.86,451.5473 " fill="none" id="STATE_B-backto-STATE_C" style="stroke:#000000;stroke-width:1.0;"/><polygon fill="#000000" points="91.16,358.9973,90.1012,368.7891,92.6877,363.7582,97.7186,366.3447,91.16,358.9973" style="stroke:#000000;stroke-width:1.0;"/><text fill="#000000" font-family="Verdana" font-size="13" lengthAdjust="spacing" textLength="42" x="112" y="410.8071">cp==B</text></g><!--link STATE_C to STATE_D--><g id="link_STATE_C_STATE_D"><path d="M79.45,522.8873 C70.35,531.4873 62.16,541.5073 57,552.7373 C50.14,567.6973 51.7514,579.4344 58.7814,594.1344 " fill="none" id="STATE_C-to-STATE_D" style="stroke:#000000;stroke-width:1.0;"/><polygon fill="#000000" points="61.37,599.5473,61.0957,589.7023,59.2128,595.0366,53.8785,593.1537,61.37,599.5473" style="stroke:#000000;stroke-width:1.0;"/><text fill="#000000" font-family="Verdana" font-size="13" lengthAdjust="spacing" textLength="43" x="58" y="566.8071">cp==D</text></g><!--reverse link STATE_C to STATE_D--><g id="link_STATE_C_STATE_D"><path d="M119.2196,528.4745 C114.5996,542.9845 110.97,554.3373 106,569.7373 C102.89,579.3773 99.5,589.8273 96.37,599.4373 " fill="none" id="STATE_C-backto-STATE_D" style="stroke:#000000;stroke-width:1.0;"/><polygon fill="#000000" points="121.04,522.7573,114.498,530.1195,119.523,527.5216,122.1209,532.5467,121.04,522.7573" style="stroke:#000000;stroke-width:1.0;"/><text fill="#000000" font-family="Verdana" font-size="13" lengthAdjust="spacing" textLength="43" x="113" y="566.8071">cp==C</text></g><!--link STATE_A2 to STATE_B2--><g id="link_STATE_A2_STATE_B2"><path d="M327.54,211.0973 C322.52,225.9873 320.06,243.2273 327,257.7373 C332.39,269.0073 336.355,274.9183 345.755,283.3983 " fill="none" id="STATE_A2-to-STATE_B2" style="stroke:#000000;stroke-width:1.0;"/><polygon fill="#000000" points="350.21,287.4173,346.2068,278.4187,346.4975,284.0681,340.8481,284.3588,350.21,287.4173" style="stroke:#000000;stroke-width:1.0;"/><text fill="#000000" font-family="Verdana" font-size="13" lengthAdjust="spacing" textLength="42" x="328" y="254.8071">cp==B</text></g><!--reverse link STATE_A2 to STATE_B2--><g id="link_STATE_A2_STATE_B2"><path d="M364.113,216.3164 C368.593,225.9364 370.82,230.9773 375,240.7373 C381.52,255.9673 388.29,273.0073 393.92,287.5473 " fill="none" id="STATE_A2-backto-STATE_B2" style="stroke:#000000;stroke-width:1.0;"/><polygon fill="#000000" points="361.58,210.8773,361.7534,220.7246,363.6908,215.4099,369.0055,217.3473,361.58,210.8773" style="stroke:#000000;stroke-width:1.0;"/><text fill="#000000" font-family="Verdana" font-size="13" lengthAdjust="spacing" textLength="43" x="382" y="254.8071">cp==A</text></g><!--link STATE_B2 to STATE_C2--><g id="link_STATE_B2_STATE_C2"><path d="M398.07,358.9473 C394.94,378.4173 394.28,402.5573 404,421.7373 C409.82,433.2273 414.1677,439.3059 424.1577,447.7059 " fill="none" id="STATE_B2-to-STATE_C2" style="stroke:#000000;stroke-width:1.0;"/><polygon fill="#000000" points="428.75,451.5673,424.4358,442.7136,424.9231,448.3495,419.2872,448.8367,428.75,451.5673" style="stroke:#000000;stroke-width:1.0;"/><text fill="#000000" font-family="Verdana" font-size="13" lengthAdjust="spacing" textLength="43" x="405" y="410.8071">cp==C</text></g><!--reverse link STATE_B2 to STATE_C2--><g id="link_STATE_B2_STATE_C2"><path d="M437.6065,363.9675 C444.2465,373.3075 447.53,378.7273 453,388.7373 C463.93,408.7373 473.48,432.4573 480.4,451.4873 " fill="none" id="STATE_B2-backto-STATE_C2" style="stroke:#000000;stroke-width:1.0;"/><polygon fill="#000000" points="434.13,359.0773,436.0847,368.7302,437.0271,363.1524,442.6049,364.0949,434.13,359.0773" style="stroke:#000000;stroke-width:1.0;"/><text fill="#000000" font-family="Verdana" font-size="13" lengthAdjust="spacing" textLength="42" x="468" y="410.8071">cp==B</text></g><!--link STATE_B2 to STATE_D2--><g id="link_STATE_B2_STATE_D2"><path d="M392.93,359.0073 C383.5,384.2673 371.94,419.5273 367,451.7373 C362.22,482.9373 363.13,491.4273 367,522.7373 C370.23,548.8873 375.9013,571.9569 382.2513,593.7469 " fill="none" id="STATE_B2-to-STATE_D2" style="stroke:#000000;stroke-width:1.0;"/><polygon fill="#000000" points="383.93,599.5073,385.2522,589.7476,382.5311,594.707,377.5717,591.9858,383.93,599.5073" style="stroke:#000000;stroke-width:1.0;"/><text fill="#000000" font-family="Verdana" font-size="13" lengthAdjust="spacing" textLength="43" x="368" y="492.8071">cp==D</text></g><!--link STATE_C2 to STATE_D2--><g id="link_STATE_C2_STATE_D2"><path d="M430.2,523.0973 C419.95,531.5273 410.54,541.4273 404,552.7373 C395.95,566.6673 393.447,578.1805 392.947,593.4005 " fill="none" id="STATE_C2-to-STATE_D2" style="stroke:#000000;stroke-width:1.0;"/><polygon fill="#000000" points="392.75,599.3973,397.0433,590.5335,392.9142,594.4,389.0477,590.2708,392.75,599.3973" style="stroke:#000000;stroke-width:1.0;"/><text fill="#000000" font-family="Verdana" font-size="13" lengthAdjust="spacing" textLength="43" x="405" y="566.8071">cp==D</text></g><!--reverse link STATE_C2 to STATE_D2--><g id="link_STATE_C2_STATE_D2"><path d="M475.5046,528.6064 C468.8546,543.5064 462.68,555.2673 453,569.7373 C446.14,580.0073 437.72,590.3173 429.45,599.5873 " fill="none" id="STATE_C2-backto-STATE_D2" style="stroke:#000000;stroke-width:1.0;"/><polygon fill="#000000" points="477.95,523.1273,470.6292,529.7157,475.9122,527.6932,477.9347,532.9762,477.95,523.1273" style="stroke:#000000;stroke-width:1.0;"/><text fill="#000000" font-family="Verdana" font-size="13" lengthAdjust="spacing" textLength="43" x="464" y="566.8071">cp==C</text></g><!--link STATE_C2 to STATE_EF--><g id="link_STATE_C2_STATE_EF"><path d="M526.84,522.8373 C553.16,548.9773 584.4623,580.0798 608.4323,603.8798 " fill="none" id="STATE_C2-to-STATE_EF" style="stroke:#000000;stroke-width:1.0;"/><polygon fill="#000000" points="612.69,608.1073,609.1218,598.9276,609.1419,604.5844,603.4851,604.6045,612.69,608.1073" style="stroke:#000000;stroke-width:1.0;"/><text fill="#000000" font-family="Verdana" font-size="13" lengthAdjust="spacing" textLength="73" x="570" y="566.8071">cp==E or F</text></g><!--link STATE_D2 to STATE_EF--><g id="link_STATE_D2_STATE_EF"><path d="M476.25,635.2373 C512.15,635.2373 547.38,635.2373 579.36,635.2373 " fill="none" id="STATE_D2-to-STATE_EF" style="stroke:#000000;stroke-width:1.0;"/><polygon fill="#000000" points="585.36,635.2373,576.36,631.2373,580.36,635.2373,576.36,639.2373,585.36,635.2373" style="stroke:#000000;stroke-width:1.0;"/><text fill="#000000" font-family="Verdana" font-size="13" lengthAdjust="spacing" textLength="73" x="494.25" y="629.3071">cp==E or F</text></g><rect fill="none" height="180.1465" id="_legend" rx="7.5" ry="7.5" style="stroke:#000000;stroke-width:1.0;" width="279" x="401.5" y="689.0573"/><text fill="#000000" font-family="Verdana" font-size="14" font-weight="bold" lengthAdjust="spacing" textLength="195" x="406.5" y="708.1325">Control Pilot (cp) States:</text><text fill="#000000" font-family="Verdana" font-size="14" lengthAdjust="spacing" textLength="148" x="406.5" y="725.1471">A = No Vehicle (12V)</text><text fill="#000000" font-family="Verdana" font-size="14" lengthAdjust="spacing" textLength="195" x="406.5" y="742.1618">B = Vehicle Connected (9V)</text><text fill="#000000" font-family="Verdana" font-size="14" lengthAdjust="spacing" textLength="185" x="406.5" y="759.1764">C = Ready to Charge (6V)</text><text fill="#000000" font-family="Verdana" font-size="14" lengthAdjust="spacing" textLength="209" x="406.5" y="776.1911">D = Ventilation Required (3V)</text><text fill="#000000" font-family="Verdana" font-size="14" lengthAdjust="spacing" textLength="160" x="406.5" y="793.2057">E/F = Error Conditions</text><text fill="#000000" font-family="Verdana" font-size="14" lengthAdjust="spacing" textLength="5" x="406.5" y="810.2204">&#160;</text><text fill="#000000" font-family="Verdana" font-size="14" font-weight="bold" lengthAdjust="spacing" textLength="132" x="406.5" y="827.235">PWM Duty Cycle:</text><text fill="#000000" font-family="Verdana" font-size="14" lengthAdjust="spacing" textLength="242" x="406.5" y="844.2497">100% = 12V DC (No current limit)</text><text fill="#000000" font-family="Verdana" font-size="14" lengthAdjust="spacing" textLength="269" x="406.5" y="861.2643">Variable = Current limit signal (6-80A)</text><!--SRC=[ZLLXJzim4FsUNt4WRKihLQEU11kYI8tTIfi6Ge2w3mHLQM9IYzJE70TKZVttdPCqJKBBwAVKzvxllRlBvS0i-Of3cWH2EaQOXCDaTZE17yEJ4m8t9Z0SBe9mAIHtiaSXqq07AyYAypyEuCyBmiTOgrn6L2LAdvsbpwlpSqX4l3IB9EUxGU4oqB6GyGOPQyxbRYZNMcd4fK8-bWYb8wwBA2mIX1UdOuGzDm__EiudOFm1fPU2Cn0IOYqYI5KcZ50oSqedXpUtuzl9VEnBT2oZnTgNxjMl2nWU7Nte7KAGGGNeu4bD08GZQHPe4ImItY8Hg8hYjEcUBsTyAKAiEUE6XuP7U_9w7I9vpNn3WBTF0FNbDG-YVMvf1urPQTMsYh4h6xNPjktjf6HMkJGY2MpzzoHc7GvfaU0T8jYR8YQVfxwSsB4g9pnhC2TJg4VE3j3FOArouzprxs4GgMSvEAzd0QCuR_bAmX3mk7ecu5e_jX_sTAFE_kyv5HK6sWxzzYu2fsK3nw4HJuND2kjriPx5QjkskL7pmYE7ZnzzYHqUZMpgYicwJBQFUQ2Uk9w7kTPOvOOjqh0r1BTfnKOsDcjRY4_uGyCMvWlJqMYyqNTsyVtIgMsqmHw23phgd7gasbYw0milBxvi6QbTjydiNMIimenh8y8W0QC3MIqCkqB2gYBRRhO6mwjSUziEjk9M_DrKgnLuvDwNJo80IZPEErXMtSMsT-Nfw_fksOreLmThHMaLfUzmIXeDRbibNQzT12LrdZq8HZeUwNyHzevc6KYt3ktuAvMi7Mzen5gKUw5HYCQbxVS9LqN9cm0ofetBtyOv2O-vZA10uRUhtwTA6gqIk1A9Ck26QQzQJAVzFWB6C89B1PkLxmx9h8V77Xvlpl06MNu7t6z5a6AmMEvWLBanaNXSX5Z1s-xJQ_ux5zfIlnHnN8-8AEk0zqPL6G0AhVRbPxbP0rrZub9WiGb6WBg0KN1HQ_KQuSTz9Oozj5uU8w3D66GYbZXvxl7Wwz6uvs1Xol8u_m00]--></g></svg>