<?xml version="1.0" encoding="us-ascii" standalone="no"?><svg xmlns="http://www.w3.org/2000/svg" xmlns:xlink="http://www.w3.org/1999/xlink" contentStyleType="text/css" height="746px" preserveAspectRatio="none" style="width:742px;height:746px;background:#FFFFFF;" version="1.1" viewBox="0 0 742 746" width="742px" zoomAndPan="magnify"><defs/><g><text fill="#000000" font-family="Verdana" font-size="22" font-weight="bold" lengthAdjust="spacing" textLength="515" x="112" y="37.1182">Control Pilot Synchronized ADC Sampling</text><line style="stroke:#000000;stroke-width:1.0;" x1="165" x2="165" y1="101.7666" y2="693.9536"/><line style="stroke:#000000;stroke-width:1.0;" x1="298.5" x2="298.5" y1="101.7666" y2="693.9536"/><line style="stroke:#000000;stroke-width:1.0;" x1="432" x2="432" y1="101.7666" y2="693.9536"/><line style="stroke:#000000;stroke-width:1.0;" x1="569" x2="569" y1="101.7666" y2="693.9536"/><rect fill="#FFFFFF" height="31.0146" rx="2.5" ry="2.5" style="stroke:#000000;stroke-width:1.0;" width="77" x="127" y="69.752"/><text fill="#000000" font-family="Verdana" font-size="14" lengthAdjust="spacing" textLength="63" x="134" y="90.8271">CTIMER3</text><rect fill="#FFFFFF" height="31.0146" rx="2.5" ry="2.5" style="stroke:#000000;stroke-width:1.0;" width="77" x="127" y="692.9536"/><text fill="#000000" font-family="Verdana" font-size="14" lengthAdjust="spacing" textLength="63" x="134" y="714.0288">CTIMER3</text><rect fill="#FFFFFF" height="48.0293" rx="2.5" ry="2.5" style="stroke:#000000;stroke-width:1.0;" width="112" x="242.5" y="52.7373"/><text fill="#000000" font-family="Verdana" font-size="14" lengthAdjust="spacing" textLength="55" x="271" y="73.8125">Match 1</text><text fill="#000000" font-family="Verdana" font-size="14" lengthAdjust="spacing" textLength="98" x="249.5" y="90.8271">(ADC Trigger)</text><rect fill="#FFFFFF" height="48.0293" rx="2.5" ry="2.5" style="stroke:#000000;stroke-width:1.0;" width="112" x="242.5" y="692.9536"/><text fill="#000000" font-family="Verdana" font-size="14" lengthAdjust="spacing" textLength="55" x="271" y="714.0288">Match 1</text><text fill="#000000" font-family="Verdana" font-size="14" lengthAdjust="spacing" textLength="98" x="249.5" y="731.0435">(ADC Trigger)</text><rect fill="#FFFFFF" height="31.0146" rx="2.5" ry="2.5" style="stroke:#000000;stroke-width:1.0;" width="45" x="410" y="69.752"/><text fill="#000000" font-family="Verdana" font-size="14" lengthAdjust="spacing" textLength="31" x="417" y="90.8271">ADC</text><rect fill="#FFFFFF" height="31.0146" rx="2.5" ry="2.5" style="stroke:#000000;stroke-width:1.0;" width="45" x="410" y="692.9536"/><text fill="#000000" font-family="Verdana" font-size="14" lengthAdjust="spacing" textLength="31" x="417" y="714.0288">ADC</text><rect fill="#FFFFFF" height="31.0146" rx="2.5" ry="2.5" style="stroke:#000000;stroke-width:1.0;" width="79" x="530" y="69.752"/><text fill="#000000" font-family="Verdana" font-size="14" lengthAdjust="spacing" textLength="65" x="537" y="90.8271">CP Signal</text><rect fill="#FFFFFF" height="31.0146" rx="2.5" ry="2.5" style="stroke:#000000;stroke-width:1.0;" width="79" x="530" y="692.9536"/><text fill="#000000" font-family="Verdana" font-size="14" lengthAdjust="spacing" textLength="65" x="537" y="714.0288">CP Signal</text><rect fill="#FFFFFF" height="3" style="stroke:#FFFFFF;stroke-width:1.0;" width="730" x="5" y="132.6663"/><line style="stroke:#000000;stroke-width:0.5;" x1="5" x2="735" y1="132.6663" y2="132.6663"/><line style="stroke:#000000;stroke-width:0.5;" x1="5" x2="735" y1="135.6663" y2="135.6663"/><rect fill="#FFFFFF" height="23.7993" style="stroke:#000000;stroke-width:1.0;" width="97" x="321.5" y="121.7666"/><text fill="#000000" font-family="Verdana" font-size="13" font-weight="bold" lengthAdjust="spacing" textLength="79" x="327.5" y="138.8364">PWM Cycle</text><polygon fill="#000000" points="557.5,173.3652,567.5,177.3652,557.5,181.3652,561.5,177.3652" style="stroke:#000000;stroke-width:1.0;"/><line style="stroke:#000000;stroke-width:1.0;" x1="165.5" x2="563.5" y1="177.3652" y2="177.3652"/><text fill="#000000" font-family="Verdana" font-size="13" lengthAdjust="spacing" textLength="116" x="172.5" y="172.6357">PWM High (Start)</text><path d="M574,190.3652 L574,247.3652 L726,247.3652 L726,200.3652 L716,190.3652 L574,190.3652 " fill="#FFFFFF" style="stroke:#000000;stroke-width:1.0;"/><path d="M716,190.3652 L716,200.3652 L726,200.3652 L716,190.3652 " fill="#FFFFFF" style="stroke:#000000;stroke-width:1.0;"/><text fill="#000000" font-family="Verdana" font-size="13" lengthAdjust="spacing" textLength="131" x="580" y="208.4351">Voltage depends on</text><text fill="#000000" font-family="Verdana" font-size="13" lengthAdjust="spacing" textLength="92" x="580" y="224.2344">vehicle state:</text><text fill="#000000" font-family="Verdana" font-size="13" lengthAdjust="spacing" textLength="106" x="580" y="240.0337">12V, 9V, 6V, 3V</text><line style="stroke:#000000;stroke-width:1.0;" x1="165.5" x2="207.5" y1="290.3618" y2="290.3618"/><line style="stroke:#000000;stroke-width:1.0;" x1="207.5" x2="207.5" y1="290.3618" y2="303.3618"/><line style="stroke:#000000;stroke-width:1.0;" x1="166.5" x2="207.5" y1="303.3618" y2="303.3618"/><polygon fill="#000000" points="176.5,299.3618,166.5,303.3618,176.5,307.3618,172.5,303.3618" style="stroke:#000000;stroke-width:1.0;"/><text fill="#000000" font-family="Verdana" font-size="13" lengthAdjust="spacing" textLength="113" x="172.5" y="269.833">Calculate optimal</text><text fill="#000000" font-family="Verdana" font-size="13" lengthAdjust="spacing" textLength="94" x="172.5" y="285.6323">sampling point</text><path d="M10,316.3618 L10,373.3618 L161,373.3618 L161,326.3618 L151,316.3618 L10,316.3618 " fill="#FFFFFF" style="stroke:#000000;stroke-width:1.0;"/><path d="M151,316.3618 L151,326.3618 L161,326.3618 L151,316.3618 " fill="#FFFFFF" style="stroke:#000000;stroke-width:1.0;"/><text fill="#000000" font-family="Verdana" font-size="13" lengthAdjust="spacing" textLength="130" x="16" y="334.4316">Sample at middle of</text><text fill="#000000" font-family="Verdana" font-size="13" lengthAdjust="spacing" textLength="111" x="16" y="350.231">high or low pulse</text><text fill="#000000" font-family="Verdana" font-size="13" lengthAdjust="spacing" textLength="116" x="16" y="366.0303">for stable reading</text><polygon fill="#000000" points="286.5,396.5591,296.5,400.5591,286.5,404.5591,290.5,400.5591" style="stroke:#000000;stroke-width:1.0;"/><line style="stroke:#000000;stroke-width:1.0;" x1="165.5" x2="292.5" y1="400.5591" y2="400.5591"/><text fill="#000000" font-family="Verdana" font-size="13" lengthAdjust="spacing" textLength="109" x="172.5" y="395.8296">Match 1 triggers</text><polygon fill="#000000" points="420.5,426.3584,430.5,430.3584,420.5,434.3584,424.5,430.3584" style="stroke:#000000;stroke-width:1.0;"/><line style="stroke:#000000;stroke-width:1.0;" x1="298.5" x2="426.5" y1="430.3584" y2="430.3584"/><text fill="#000000" font-family="Verdana" font-size="13" lengthAdjust="spacing" textLength="110" x="305.5" y="425.6289">Start conversion</text><line style="stroke:#000000;stroke-width:1.0;" x1="432.5" x2="474.5" y1="460.1577" y2="460.1577"/><line style="stroke:#000000;stroke-width:1.0;" x1="474.5" x2="474.5" y1="460.1577" y2="473.1577"/><line style="stroke:#000000;stroke-width:1.0;" x1="433.5" x2="474.5" y1="473.1577" y2="473.1577"/><polygon fill="#000000" points="443.5,469.1577,433.5,473.1577,443.5,477.1577,439.5,473.1577" style="stroke:#000000;stroke-width:1.0;"/><text fill="#000000" font-family="Verdana" font-size="13" lengthAdjust="spacing" textLength="123" x="439.5" y="455.4282">Sample CP voltage</text><line style="stroke:#000000;stroke-width:1.0;" x1="432.5" x2="474.5" y1="502.957" y2="502.957"/><line style="stroke:#000000;stroke-width:1.0;" x1="474.5" x2="474.5" y1="502.957" y2="515.957"/><line style="stroke:#000000;stroke-width:1.0;" x1="433.5" x2="474.5" y1="515.957" y2="515.957"/><polygon fill="#000000" points="443.5,511.957,433.5,515.957,443.5,519.957,439.5,515.957" style="stroke:#000000;stroke-width:1.0;"/><text fill="#000000" font-family="Verdana" font-size="13" lengthAdjust="spacing" textLength="116" x="439.5" y="498.2275">16-bit conversion</text><line style="stroke:#000000;stroke-width:1.0;stroke-dasharray:2.0,2.0;" x1="432.5" x2="474.5" y1="545.7563" y2="545.7563"/><line style="stroke:#000000;stroke-width:1.0;stroke-dasharray:2.0,2.0;" x1="474.5" x2="474.5" y1="545.7563" y2="558.7563"/><line style="stroke:#000000;stroke-width:1.0;stroke-dasharray:2.0,2.0;" x1="433.5" x2="474.5" y1="558.7563" y2="558.7563"/><polygon fill="#000000" points="443.5,554.7563,433.5,558.7563,443.5,562.7563,439.5,558.7563" style="stroke:#000000;stroke-width:1.0;"/><text fill="#000000" font-family="Verdana" font-size="13" lengthAdjust="spacing" textLength="122" x="439.5" y="541.0269">Generate interrupt</text><path d="M437,571.7563 L437,612.7563 L602,612.7563 L602,581.7563 L592,571.7563 L437,571.7563 " fill="#FFFFFF" style="stroke:#000000;stroke-width:1.0;"/><path d="M592,571.7563 L592,581.7563 L602,581.7563 L592,571.7563 " fill="#FFFFFF" style="stroke:#000000;stroke-width:1.0;"/><text fill="#000000" font-family="Verdana" font-size="13" lengthAdjust="spacing" textLength="92" x="443" y="589.8262">Store value in</text><text fill="#000000" font-family="Verdana" font-size="13" lengthAdjust="spacing" textLength="144" x="443" y="605.6255">s_u16AdcCPRawValue</text><polygon fill="#000000" points="557.5,636.1543,567.5,640.1543,557.5,644.1543,561.5,640.1543" style="stroke:#000000;stroke-width:1.0;"/><line style="stroke:#000000;stroke-width:1.0;" x1="165.5" x2="563.5" y1="640.1543" y2="640.1543"/><text fill="#000000" font-family="Verdana" font-size="13" lengthAdjust="spacing" textLength="63" x="172.5" y="635.4248">PWM Low</text><path d="M574,653.1543 L574,678.1543 L730,678.1543 L730,663.1543 L720,653.1543 L574,653.1543 " fill="#FFFFFF" style="stroke:#000000;stroke-width:1.0;"/><path d="M720,653.1543 L720,663.1543 L730,663.1543 L720,653.1543 " fill="#FFFFFF" style="stroke:#000000;stroke-width:1.0;"/><text fill="#000000" font-family="Verdana" font-size="13" lengthAdjust="spacing" textLength="135" x="580" y="671.2241">Continue PWM cycle</text><!--SRC=[RLB1QkCm4BthAsPxQc5xy1O23QGGlCksK8DfIlPYAAeziGNAZ9372UtNTwHaMzBs83JIUvetyqO_PC0jGl3MaH4d7g5aaiWUQkTPOFL2xH2Pt2jsiFnTmifkWtVK6nDi5DUwO4dWh7oyg_uyN9s17I67ft1bfHsWQEWyvNYChkynNcHsLPnIbP3lTVyaKSFAzMHzXilQcCK2wdyLb2-jrhrOc2mCbpSApZDow_e1pbUYQIuCiI2eyY30cqnPinVR8tGOaBeHc1hQuU1Ikb6iuBoXujVw9rphckcwMfiFaHpCeRI-dRoIWOEuhVKDZKUF8B0ZEGXxt6JTuwji8u8LsBgkquWt3GsfN8xWUGzXyYCsjD6ZblAiZ8YsoyQ_Lr0LSpWw2tBmT3HLaI1rJqLIuz2oDXL7nsII-U_WeG9rTNUmuGGjPfVFxklR__1V98ofP-qFOvo2VBBtgCyHOMVzb8ZgozDKp9PTMzOFThzEr-RhpEvv_yseqgzqf7aIfKq3Dsy0]--></g></svg>