<?xml version="1.0" encoding="us-ascii" standalone="no"?><svg xmlns="http://www.w3.org/2000/svg" xmlns:xlink="http://www.w3.org/1999/xlink" contentStyleType="text/css" height="1262px" preserveAspectRatio="none" style="width:714px;height:1262px;background:#FFFFFF;" version="1.1" viewBox="0 0 714 1262" width="714px" zoomAndPan="magnify"><defs/><g><text fill="#000000" font-family="Verdana" font-size="22" font-weight="bold" lengthAdjust="spacing" textLength="619" x="51" y="37.1182">AFE SPI DMA IRQ and Metrology Task Interaction</text><rect fill="#90EE90" height="285.9932" style="stroke:#000000;stroke-width:1.0;" width="10" x="470" y="649.1543"/><rect fill="#FFFFFF" height="862.1182" style="stroke:#000000;stroke-width:1.0;" width="693" x="14" y="330.3618"/><rect fill="#FFFFFF" height="654.9536" style="stroke:#000000;stroke-width:1.0;" width="673" x="24" y="413.7598"/><rect fill="#FFFFFF" height="66.9673" style="stroke:none;stroke-width:1.0;" width="673" x="24" y="1001.7461"/><rect fill="#FFFFFF" height="116.7666" style="stroke:none;stroke-width:1.0;" width="693" x="14" y="1075.7134"/><line style="stroke:#000000;stroke-width:1.0;" x1="143" x2="143" y1="101.7666" y2="1209.48"/><line style="stroke:#000000;stroke-width:1.0;" x1="475" x2="475" y1="101.7666" y2="1209.48"/><rect fill="#FFFFFF" height="48.0293" rx="2.5" ry="2.5" style="stroke:#000000;stroke-width:1.0;" width="192" x="47" y="52.7373"/><text fill="#000000" font-family="Verdana" font-size="14" lengthAdjust="spacing" textLength="63" x="111.5" y="73.8125">DMA IRQ</text><text fill="#000000" font-family="Verdana" font-size="14" lengthAdjust="spacing" textLength="178" x="54" y="90.8271">(AFE_SPIRxDMACallback)</text><rect fill="#FFFFFF" height="48.0293" rx="2.5" ry="2.5" style="stroke:#000000;stroke-width:1.0;" width="192" x="47" y="1208.48"/><text fill="#000000" font-family="Verdana" font-size="14" lengthAdjust="spacing" textLength="63" x="111.5" y="1229.5552">DMA IRQ</text><text fill="#000000" font-family="Verdana" font-size="14" lengthAdjust="spacing" textLength="178" x="54" y="1246.5698">(AFE_SPIRxDMACallback)</text><rect fill="#FFFFFF" height="31.0146" rx="2.5" ry="2.5" style="stroke:#000000;stroke-width:1.0;" width="124" x="413" y="69.752"/><text fill="#000000" font-family="Verdana" font-size="14" lengthAdjust="spacing" textLength="110" x="420" y="90.8271">metrology_task</text><rect fill="#FFFFFF" height="31.0146" rx="2.5" ry="2.5" style="stroke:#000000;stroke-width:1.0;" width="124" x="413" y="1208.48"/><text fill="#000000" font-family="Verdana" font-size="14" lengthAdjust="spacing" textLength="110" x="420" y="1229.5552">metrology_task</text><rect fill="#90EE90" height="285.9932" style="stroke:#000000;stroke-width:1.0;" width="10" x="470" y="649.1543"/><path d="M389,116.7666 L389,157.7666 L561,157.7666 L561,126.7666 L551,116.7666 L389,116.7666 " fill="#FFFFFF" style="stroke:#000000;stroke-width:1.0;"/><path d="M551,116.7666 L551,126.7666 L561,126.7666 L551,116.7666 " fill="#FFFFFF" style="stroke:#000000;stroke-width:1.0;"/><text fill="#000000" font-family="Verdana" font-size="13" lengthAdjust="spacing" textLength="151" x="395" y="134.8364">Waiting on EventGroup</text><text fill="#000000" font-family="Verdana" font-size="13" lengthAdjust="spacing" textLength="149" x="395" y="150.6357">(xEventGroupWaitBits)</text><line style="stroke:#000000;stroke-width:1.0;" x1="143" x2="185" y1="200.9639" y2="200.9639"/><line style="stroke:#000000;stroke-width:1.0;" x1="185" x2="185" y1="200.9639" y2="213.9639"/><line style="stroke:#000000;stroke-width:1.0;" x1="144" x2="185" y1="213.9639" y2="213.9639"/><polygon fill="#000000" points="154,209.9639,144,213.9639,154,217.9639,150,213.9639" style="stroke:#000000;stroke-width:1.0;"/><text fill="#000000" font-family="Verdana" font-size="13" lengthAdjust="spacing" textLength="148" x="150" y="180.4351">SPI Transfer Complete</text><text fill="#000000" font-family="Verdana" font-size="13" lengthAdjust="spacing" textLength="143" x="150" y="196.2344">(transferDone = true)</text><line style="stroke:#000000;stroke-width:1.0;" x1="143" x2="185" y1="259.5625" y2="259.5625"/><line style="stroke:#000000;stroke-width:1.0;" x1="185" x2="185" y1="259.5625" y2="272.5625"/><line style="stroke:#000000;stroke-width:1.0;" x1="144" x2="185" y1="272.5625" y2="272.5625"/><polygon fill="#000000" points="154,268.5625,144,272.5625,154,276.5625,150,272.5625" style="stroke:#000000;stroke-width:1.0;"/><text fill="#000000" font-family="Verdana" font-size="13" lengthAdjust="spacing" textLength="116" x="150" y="239.0337">Process AFE data</text><text fill="#000000" font-family="Verdana" font-size="13" lengthAdjust="spacing" textLength="209" x="150" y="254.833">(6 channels: U1,U2,U3,I1,I2,I3)</text><line style="stroke:#000000;stroke-width:1.0;" x1="143" x2="185" y1="302.3618" y2="302.3618"/><line style="stroke:#000000;stroke-width:1.0;" x1="185" x2="185" y1="302.3618" y2="315.3618"/><line style="stroke:#000000;stroke-width:1.0;" x1="144" x2="185" y1="315.3618" y2="315.3618"/><polygon fill="#000000" points="154,311.3618,144,315.3618,154,319.3618,150,315.3618" style="stroke:#000000;stroke-width:1.0;"/><text fill="#000000" font-family="Verdana" font-size="13" lengthAdjust="spacing" textLength="71" x="150" y="297.6323">CRC Check</text><path d="M14,330.3618 L78,330.3618 L78,338.1611 L68,348.1611 L14,348.1611 L14,330.3618 " fill="#FFFFFF" style="stroke:#000000;stroke-width:1.0;"/><rect fill="none" height="862.1182" style="stroke:#000000;stroke-width:1.0;" width="693" x="14" y="330.3618"/><text fill="#000000" font-family="Verdana" font-size="13" font-weight="bold" lengthAdjust="spacing" textLength="19" x="29" y="344.4316">alt</text><text fill="#000000" font-family="Verdana" font-size="11" font-weight="bold" lengthAdjust="spacing" textLength="72" x="93" y="343.4209">[CRC Valid]</text><line style="stroke:#000000;stroke-width:1.0;" x1="143" x2="185" y1="385.7598" y2="385.7598"/><line style="stroke:#000000;stroke-width:1.0;" x1="185" x2="185" y1="385.7598" y2="398.7598"/><line style="stroke:#000000;stroke-width:1.0;" x1="144" x2="185" y1="398.7598" y2="398.7598"/><polygon fill="#000000" points="154,394.7598,144,398.7598,154,402.7598,150,398.7598" style="stroke:#000000;stroke-width:1.0;"/><text fill="#000000" font-family="Verdana" font-size="13" lengthAdjust="spacing" textLength="149" x="150" y="365.231">Metering_SampleAdd()</text><text fill="#000000" font-family="Verdana" font-size="13" lengthAdjust="spacing" textLength="165" x="150" y="381.0303">(Store samples in buffer)</text><path d="M24,413.7598 L88,413.7598 L88,421.5591 L78,431.5591 L24,431.5591 L24,413.7598 " fill="#FFFFFF" style="stroke:#000000;stroke-width:1.0;"/><rect fill="none" height="654.9536" style="stroke:#000000;stroke-width:1.0;" width="673" x="24" y="413.7598"/><text fill="#000000" font-family="Verdana" font-size="13" font-weight="bold" lengthAdjust="spacing" textLength="19" x="39" y="427.8296">alt</text><text fill="#000000" font-family="Verdana" font-size="11" font-weight="bold" lengthAdjust="spacing" textLength="308" x="103" y="426.8188">[Buffer Full (current_sample == buf_samples)]</text><line style="stroke:#000000;stroke-width:1.0;" x1="143" x2="185" y1="469.1577" y2="469.1577"/><line style="stroke:#000000;stroke-width:1.0;" x1="185" x2="185" y1="469.1577" y2="482.1577"/><line style="stroke:#000000;stroke-width:1.0;" x1="144" x2="185" y1="482.1577" y2="482.1577"/><polygon fill="#000000" points="154,478.1577,144,482.1577,154,486.1577,150,482.1577" style="stroke:#000000;stroke-width:1.0;"/><text fill="#000000" font-family="Verdana" font-size="13" lengthAdjust="spacing" textLength="161" x="150" y="448.6289">Metering_SampleFinish()</text><text fill="#000000" font-family="Verdana" font-size="13" lengthAdjust="spacing" textLength="261" x="150" y="464.4282">(Switch buffers: rd_buffer = wr_buffer)</text><line style="stroke:#000000;stroke-width:1.0;" x1="143" x2="185" y1="511.957" y2="511.957"/><line style="stroke:#000000;stroke-width:1.0;" x1="185" x2="185" y1="511.957" y2="524.957"/><line style="stroke:#000000;stroke-width:1.0;" x1="144" x2="185" y1="524.957" y2="524.957"/><polygon fill="#000000" points="154,520.957,144,524.957,154,528.957,150,524.957" style="stroke:#000000;stroke-width:1.0;"/><text fill="#000000" font-family="Verdana" font-size="13" lengthAdjust="spacing" textLength="174" x="150" y="507.2275">Metering_StartProcesing()</text><line style="stroke:#000000;stroke-width:1.0;" x1="143" x2="185" y1="554.7563" y2="554.7563"/><line style="stroke:#000000;stroke-width:1.0;" x1="185" x2="185" y1="554.7563" y2="567.7563"/><line style="stroke:#000000;stroke-width:1.0;" x1="144" x2="185" y1="567.7563" y2="567.7563"/><polygon fill="#000000" points="154,563.7563,144,567.7563,154,571.7563,150,567.7563" style="stroke:#000000;stroke-width:1.0;"/><text fill="#000000" font-family="Verdana" font-size="13" lengthAdjust="spacing" textLength="318" x="150" y="550.0269">EVSE_Metrology_SetEvent(Metrology_DataRCV)</text><path d="M34,580.7563 L34,621.7563 L251,621.7563 L251,590.7563 L241,580.7563 L34,580.7563 " fill="#FFFFFF" style="stroke:#000000;stroke-width:1.0;"/><path d="M241,580.7563 L241,590.7563 L251,590.7563 L241,580.7563 " fill="#FFFFFF" style="stroke:#000000;stroke-width:1.0;"/><text fill="#000000" font-family="Verdana" font-size="13" lengthAdjust="spacing" textLength="196" x="40" y="598.8262">xEventGroupSetBitsFromISR()</text><text fill="#000000" font-family="Verdana" font-size="13" lengthAdjust="spacing" textLength="161" x="40" y="614.6255">(Set event bit from ISR)</text><polygon fill="#0000FF" points="458,645.1543,468,649.1543,458,653.1543,462,649.1543" style="stroke:#0000FF;stroke-width:1.0;"/><line style="stroke:#0000FF;stroke-width:1.0;stroke-dasharray:2.0,2.0;" x1="143" x2="464" y1="649.1543" y2="649.1543"/><text fill="#0000FF" font-family="Verdana" font-size="13" font-weight="bold" lengthAdjust="spacing" textLength="177" x="150" y="644.4248">Wake up via EventGroup</text><line style="stroke:#000000;stroke-width:1.0;" x1="480" x2="522" y1="694.7529" y2="694.7529"/><line style="stroke:#000000;stroke-width:1.0;" x1="522" x2="522" y1="694.7529" y2="707.7529"/><line style="stroke:#000000;stroke-width:1.0;" x1="481" x2="522" y1="707.7529" y2="707.7529"/><polygon fill="#000000" points="491,703.7529,481,707.7529,491,711.7529,487,707.7529" style="stroke:#000000;stroke-width:1.0;"/><text fill="#000000" font-family="Verdana" font-size="13" lengthAdjust="spacing" textLength="136" x="487" y="674.2241">metrology_process()</text><text fill="#000000" font-family="Verdana" font-size="13" lengthAdjust="spacing" textLength="198" x="487" y="690.0234">(FFT processing on rd_buffer)</text><line style="stroke:#000000;stroke-width:1.0;" x1="480" x2="522" y1="737.5522" y2="737.5522"/><line style="stroke:#000000;stroke-width:1.0;" x1="522" x2="522" y1="737.5522" y2="750.5522"/><line style="stroke:#000000;stroke-width:1.0;" x1="481" x2="522" y1="750.5522" y2="750.5522"/><polygon fill="#000000" points="491,746.5522,481,750.5522,491,754.5522,487,750.5522" style="stroke:#000000;stroke-width:1.0;"/><text fill="#000000" font-family="Verdana" font-size="13" lengthAdjust="spacing" textLength="192" x="487" y="732.8228">METERLIBFFT3PH_CalcMain()</text><line style="stroke:#000000;stroke-width:1.0;" x1="480" x2="522" y1="827.7495" y2="827.7495"/><line style="stroke:#000000;stroke-width:1.0;" x1="522" x2="522" y1="827.7495" y2="840.7495"/><line style="stroke:#000000;stroke-width:1.0;" x1="481" x2="522" y1="840.7495" y2="840.7495"/><polygon fill="#000000" points="491,836.7495,481,840.7495,491,844.7495,487,840.7495" style="stroke:#000000;stroke-width:1.0;"/><text fill="#000000" font-family="Verdana" font-size="13" lengthAdjust="spacing" textLength="67" x="487" y="775.6221">Calculate:</text><text fill="#000000" font-family="Verdana" font-size="13" lengthAdjust="spacing" textLength="92" x="487" y="791.4214">- URMS, IRMS</text><text fill="#000000" font-family="Verdana" font-size="13" lengthAdjust="spacing" textLength="85" x="487" y="807.2207">- P, Q, S, PF</text><text fill="#000000" font-family="Verdana" font-size="13" lengthAdjust="spacing" textLength="115" x="487" y="823.02">- THD, harmonics</text><line style="stroke:#000000;stroke-width:1.0;" x1="480" x2="522" y1="886.3481" y2="886.3481"/><line style="stroke:#000000;stroke-width:1.0;" x1="522" x2="522" y1="886.3481" y2="899.3481"/><line style="stroke:#000000;stroke-width:1.0;" x1="481" x2="522" y1="899.3481" y2="899.3481"/><polygon fill="#000000" points="491,895.3481,481,899.3481,491,903.3481,487,899.3481" style="stroke:#000000;stroke-width:1.0;"/><text fill="#000000" font-family="Verdana" font-size="13" lengthAdjust="spacing" textLength="160" x="487" y="865.8193">Update energy counters</text><text fill="#000000" font-family="Verdana" font-size="13" lengthAdjust="spacing" textLength="77" x="487" y="881.6187">(Wh, VARh)</text><line style="stroke:#000000;stroke-width:1.0;" x1="480" x2="522" y1="934.1475" y2="934.1475"/><line style="stroke:#000000;stroke-width:1.0;" x1="522" x2="522" y1="934.1475" y2="947.1475"/><line style="stroke:#000000;stroke-width:1.0;" x1="475" x2="522" y1="947.1475" y2="947.1475"/><polygon fill="#000000" points="485,943.1475,475,947.1475,485,951.1475,481,947.1475" style="stroke:#000000;stroke-width:1.0;"/><text fill="#000000" font-family="Verdana" font-size="13" lengthAdjust="spacing" textLength="181" x="487" y="929.418">buffer_inUse[rd_buffer] = 0</text><path d="M362,955.1475 L362,996.1475 L587,996.1475 L587,965.1475 L577,955.1475 L362,955.1475 " fill="#FFFFFF" style="stroke:#000000;stroke-width:1.0;"/><path d="M577,955.1475 L577,965.1475 L587,965.1475 L577,955.1475 " fill="#FFFFFF" style="stroke:#000000;stroke-width:1.0;"/><text fill="#000000" font-family="Verdana" font-size="13" lengthAdjust="spacing" textLength="204" x="368" y="973.2173">Back to waiting on EventGroup</text><text fill="#000000" font-family="Verdana" font-size="13" lengthAdjust="spacing" textLength="149" x="368" y="989.0166">(xEventGroupWaitBits)</text><line style="stroke:#000000;stroke-width:1.0;stroke-dasharray:2.0,2.0;" x1="24" x2="697" y1="1002.7461" y2="1002.7461"/><text fill="#000000" font-family="Verdana" font-size="11" font-weight="bold" lengthAdjust="spacing" textLength="106" x="29" y="1013.8052">[Buffer Not Full]</text><path d="M41,1022.1147 L41,1063.1147 L245,1063.1147 L245,1032.1147 L235,1022.1147 L41,1022.1147 " fill="#FFFFFF" style="stroke:#000000;stroke-width:1.0;"/><path d="M235,1022.1147 L235,1032.1147 L245,1032.1147 L235,1022.1147 " fill="#FFFFFF" style="stroke:#000000;stroke-width:1.0;"/><text fill="#000000" font-family="Verdana" font-size="13" lengthAdjust="spacing" textLength="183" x="47" y="1040.1846">Continue collecting samples</text><text fill="#000000" font-family="Verdana" font-size="13" lengthAdjust="spacing" textLength="131" x="47" y="1055.9839">(current_sample++)</text><line style="stroke:#000000;stroke-width:1.0;stroke-dasharray:2.0,2.0;" x1="14" x2="707" y1="1076.7134" y2="1076.7134"/><text fill="#000000" font-family="Verdana" font-size="11" font-weight="bold" lengthAdjust="spacing" textLength="74" x="19" y="1087.7725">[CRC Error]</text><line style="stroke:#000000;stroke-width:1.0;" x1="143" x2="185" y1="1112.8813" y2="1112.8813"/><line style="stroke:#000000;stroke-width:1.0;" x1="185" x2="185" y1="1112.8813" y2="1125.8813"/><line style="stroke:#000000;stroke-width:1.0;" x1="144" x2="185" y1="1125.8813" y2="1125.8813"/><polygon fill="#000000" points="154,1121.8813,144,1125.8813,154,1129.8813,150,1125.8813" style="stroke:#000000;stroke-width:1.0;"/><text fill="#000000" font-family="Verdana" font-size="13" lengthAdjust="spacing" textLength="116" x="150" y="1108.1519">CRC_err_count++</text><line style="stroke:#000000;stroke-width:1.0;" x1="143" x2="185" y1="1171.48" y2="1171.48"/><line style="stroke:#000000;stroke-width:1.0;" x1="185" x2="185" y1="1171.48" y2="1184.48"/><line style="stroke:#000000;stroke-width:1.0;" x1="144" x2="185" y1="1184.48" y2="1184.48"/><polygon fill="#000000" points="154,1180.48,144,1184.48,154,1188.48,150,1184.48" style="stroke:#000000;stroke-width:1.0;"/><text fill="#000000" font-family="Verdana" font-size="13" lengthAdjust="spacing" textLength="161" x="150" y="1150.9512">Metering_SampleReset()</text><text fill="#000000" font-family="Verdana" font-size="13" lengthAdjust="spacing" textLength="219" x="150" y="1166.7505">(current_sample = 0, drop cycle)</text><!--SRC=[bLJRRjim37ttLt3jIoukrWkmXw0jaEjgR1bIEqaVsi9GR3OMeaY6BAVjtu-o7QTTB-do49WIUGv9aUURIN2Da0h6fMEu4GZTqH22YGU3SHSy_ngOZ66CHYkXbiymPTaAF6bGiyXm9HqdPThmYATC6ZYeWkvaWs12Wl6VwAZFX5YmQDKy09PPu91yNWUkjmoX8OR2RpoSXjDkyCjnf388QeEwFkl03UE6ooKe2SCDIlDJgpmbtgUTPLrwt6HDnwauuUXoIzyfYfng9hC70kwhTIhG826OwcoW9C8569tZ1mWJhIBCig9bCJECWdz0b30fKMGTc9suirDtTkPw9wvtwdfd7y3q_Jxq4unMZiE4ASmv4pnsW7xl1T1peARYmu3PhBjnt6WITs2KHiYAimouX4N-G7Kq2vpYpyBtYaCOvK908ygrfdQ5PH1SNDYOoihAm2ycCUAIPqcPnoCtKLAnKnzq79RVrCr77RxCQZ-ueIaf-qncu_EeuJmOXlMiXW6QOXWQkwC1lPBVd-zWwe_TZDLmBqQ9eEmaZRHQUu5VLea6q3h0WXjue1kWgtUGwqnl3nSYntlAU3V6vn4bfZlsuhBLkc4hX3o53MSlfhhLElzUk5s-1RTRk66K-XOI3WLV9cQf4MNjLL- -ujxjN5eESb7NQ3I5ogxsgtw_vXv0-XhwlxqUGPnDha9Q-sXCmjBO5sSTSq5LTExa4SpySU2IYem3QqrSk7Q13YOZQqwl1YuaJA-Lv56s1tUMnhOrA56JT4KgjxgLKOqtYGlphf_iIwmiE-Hobk5jtOPxckFZEZB6Ds_msNJjm7kaY60KFFwFabam4XVShl4VPOfL_coE-qeIGOxK0I4mAiYg5IUQrnBGRbSSCdOA7gj6GwsL_b2Do2D4hSEYl-tsLrNBnmnDCN7_YX0Skn1hbKBq70dINflBNm00]--></g></svg>